<svg xmlns="http://www.w3.org/2000/svg" viewBox="0 0 64 64" width="64" height="64">
  <defs>
    <linearGradient id="bg" x1="0%" y1="0%" x2="100%" y2="100%">
      <stop offset="0%" style="stop-color:#6366f1"/>
      <stop offset="100%" style="stop-color:#8b5cf6"/>
    </linearGradient>
  </defs>
  <!-- Background circle -->
  <circle cx="32" cy="32" r="30" fill="url(#bg)"/>
  <!-- Padlock body -->
  <rect x="18" y="28" width="20" height="16" rx="3" fill="#fff"/>
  <!-- Padlock shackle -->
  <path d="M22 28V22C22 17.58 25.58 14 30 14H26C22.69 14 20 16.69 20 20V28" 
        fill="none" stroke="#fff" stroke-width="3" stroke-linecap="round"/>
  <path d="M36 28V22C36 17.58 32.42 14 28 14H32C35.31 14 38 16.69 38 20V28" 
        fill="none" stroke="#fff" stroke-width="3" stroke-linecap="round"/>
  <!-- Keyhole -->
  <circle cx="28" cy="35" r="2.5" fill="#6366f1"/>
  <rect x="26.5" y="35" width="3" height="5" rx="1" fill="#6366f1"/>
  <!-- Key -->
  <g transform="translate(34, 32) rotate(45)">
    <rect x="0" y="-2" width="16" height="4" rx="2" fill="#fbbf24"/>
    <circle cx="2" cy="0" r="4" fill="#fbbf24"/>
    <circle cx="2" cy="0" r="2" fill="#6366f1"/>
    <rect x="12" y="-4" width="2" height="3" fill="#fbbf24"/>
    <rect x="14" y="-4" width="2" height="2" fill="#fbbf24"/>
  </g>
</svg>
